<?xml version="1.0" standalone="no"?>
<!DOCTYPE svg PUBLIC "-//W3C//DTD SVG 20010904//EN"
 "http://www.w3.org/TR/2001/REC-SVG-20010904/DTD/svg10.dtd">
<svg version="1.0" xmlns="http://www.w3.org/2000/svg"
 width="454.000000pt" height="168.000000pt" viewBox="0 0 454.000000 168.000000"
 preserveAspectRatio="xMidYMid meet">

<g transform="translate(0.000000,168.000000) scale(0.100000,-0.100000)"
fill="#000000" stroke="none">
<path d="M2970 1623 c-75 -26 -220 -98 -226 -111 -3 -10 -9 -103 -12 -208 l-5
-192 -56 -11 c-31 -6 -71 -20 -90 -32 -20 -12 -43 -18 -55 -15 -21 5 -22 10
-18 98 l4 93 -63 95 -64 95 -85 3 -85 2 -140 -77 -140 -78 -7 -73 c-6 -62 -4
-83 13 -130 36 -101 39 -98 -76 -93 -75 2 -110 -1 -138 -12 -20 -9 -38 -13
-41 -9 -2 4 -7 61 -10 127 -12 209 -26 346 -36 366 -9 16 -22 19 -86 19 -68 0
-88 -5 -199 -51 -68 -28 -131 -56 -140 -63 -20 -15 -44 -120 -45 -198 l0 -58
-80 -2 c-44 -1 -88 -2 -97 -2 -15 -1 -19 12 -25 85 -7 93 -20 128 -65 173 -56
58 -103 70 -268 74 -171 4 -278 -13 -466 -74 -119 -38 -119 -37 -119 -136 0
-41 11 -89 42 -175 41 -117 61 -147 127 -193 16 -11 47 -89 117 -290 114 -327
116 -330 221 -330 60 0 73 4 134 41 l67 40 64 -33 c60 -30 70 -32 189 -36 113
-4 132 -2 197 21 39 13 73 22 77 19 3 -3 5 -29 5 -58 0 -42 5 -59 26 -83 l26
-31 176 0 c98 0 183 4 190 8 7 5 18 28 25 53 8 27 19 44 28 43 8 -1 56 -31
107 -67 97 -69 148 -86 211 -72 42 9 61 40 61 97 0 61 13 68 126 68 48 0 117
7 153 16 61 16 67 16 120 -2 52 -17 89 -19 478 -17 l422 2 30 -24 c29 -25 31
-25 222 -25 175 0 197 2 224 20 29 19 29 19 61 0 28 -18 50 -20 223 -20 182 0
193 1 221 22 29 21 30 25 30 102 l0 81 -95 124 c-52 69 -95 128 -95 133 0 4
38 57 84 116 135 174 146 194 146 273 0 93 -7 99 -123 98 -51 0 -147 -4 -214
-8 l-122 -7 -35 -39 -34 -40 -39 41 -38 42 -208 7 c-220 8 -233 6 -239 -38 -3
-20 -10 -22 -103 -29 -55 -3 -116 -11 -135 -17 -19 -6 -37 -7 -41 -3 -4 4 -9
128 -11 275 -4 311 1 298 -102 296 -34 0 -68 -3 -76 -6z m89 -369 c1 -132 4
-281 7 -330 l6 -89 53 51 c75 74 142 98 270 99 84 0 108 -4 152 -23 99 -45
102 -37 -60 -228 -79 -93 -140 -171 -135 -172 21 -9 117 50 143 88 15 22 30
40 34 40 3 0 29 -28 56 -62 83 -102 80 -92 44 -133 -18 -20 -51 -47 -74 -60
-90 -53 -282 -81 -376 -55 -20 6 -53 21 -73 35 l-36 24 0 -34 c0 -34 -1 -35
-37 -35 -21 0 -75 -3 -120 -7 -75 -5 -83 -4 -83 12 0 13 -5 15 -17 10 -10 -5
-48 -10 -86 -13 -58 -4 -74 -1 -122 23 -31 15 -63 37 -71 50 l-15 23 -47 -29
c-96 -59 -302 -88 -396 -54 l-39 14 6 -96 c6 -79 4 -94 -7 -90 -12 5 -348 244
-394 280 -11 9 -12 -12 -6 -121 l7 -132 -131 0 -130 0 -7 187 c-4 104 -10 192
-12 196 -3 5 -13 -8 -23 -30 -45 -101 -181 -203 -292 -219 -64 -8 -149 18
-197 61 -82 74 -115 240 -72 356 26 68 109 152 192 195 46 24 66 28 134 28 67
0 88 -4 131 -26 28 -15 66 -44 84 -65 l33 -37 -6 84 c-4 47 -7 109 -7 138 l0
54 -40 -7 c-22 -4 -40 -3 -40 2 1 4 6 34 13 67 l12 58 133 55 c73 31 135 54
137 51 3 -2 13 -138 24 -302 11 -164 21 -299 23 -301 2 -1 51 24 111 57 l108
60 96 -16 96 -15 40 35 c67 57 136 78 252 79 84 0 108 -4 152 -23 99 -45 102
-37 -60 -228 -79 -93 -140 -171 -135 -172 22 -9 117 50 143 89 16 22 34 38 40
35 8 -3 14 12 18 44 8 67 39 124 100 182 63 60 143 100 213 106 l54 4 2 211 3
211 105 47 c104 48 105 48 112 26 3 -12 6 -130 7 -263z m-699 14 c33 -51 56
-95 52 -99 -4 -3 -81 -20 -171 -37 -183 -35 -167 -38 -207 37 -11 20 -15 36
-9 38 6 2 69 37 140 77 72 41 131 74 133 75 1 1 30 -40 62 -91z m-1605 58 c54
-25 101 -72 111 -112 17 -67 -47 -174 -197 -328 -49 -50 -89 -96 -89 -101 0
-6 20 -82 45 -169 25 -87 45 -159 43 -161 -75 -54 -140 -97 -142 -94 -1 2 -56
157 -121 344 -65 187 -120 342 -122 345 -3 3 -15 -8 -28 -25 l-24 -29 -11 29
c-34 87 -80 218 -78 221 7 6 242 74 304 88 38 8 112 15 164 15 80 1 103 -3
145 -23z m2982 -274 l81 -7 73 -94 c58 -75 74 -91 83 -79 6 7 39 50 73 95 l62
81 141 7 c78 4 143 5 145 3 2 -2 -61 -88 -140 -192 -80 -103 -145 -192 -145
-197 0 -6 58 -87 130 -180 l129 -169 -139 0 -140 0 -48 62 c-26 33 -54 70 -63
81 -16 20 -18 18 -80 -61 l-64 -82 -139 0 c-109 0 -136 3 -129 13 6 6 65 85
133 175 l123 162 -29 38 c-91 113 -264 341 -264 346 0 7 98 6 207 -2z"/>
<path d="M1108 910 c-67 -20 -118 -80 -118 -137 0 -56 57 -103 126 -103 65 0
124 83 124 174 l0 29 -29 -41 c-32 -43 -59 -57 -90 -47 -41 13 -37 81 6 115
27 21 24 23 -19 10z"/>
<path d="M2770 891 c-66 -35 -99 -117 -69 -173 11 -21 82 -57 112 -58 14 0 17
9 17 58 0 46 -4 60 -20 70 -25 15 -27 68 -4 100 19 27 10 28 -36 3z"/>
<path d="M2180 812 c-48 -24 -74 -79 -65 -137 3 -25 10 -45 15 -45 4 0 42 42
83 94 70 87 74 94 54 100 -35 9 -50 7 -87 -12z"/>
<path d="M3270 812 c-48 -24 -74 -79 -65 -137 3 -25 10 -45 15 -45 4 0 42 42
83 94 70 87 74 94 54 100 -35 9 -50 7 -87 -12z"/>
<path d="M1857 714 c-53 -42 -97 -78 -97 -82 0 -6 155 -127 186 -145 11 -6 10
-1 -1 27 -20 46 -19 149 1 215 8 29 14 54 12 56 -2 2 -47 -30 -101 -71z"/>
<path d="M537 1115 c-21 -7 -41 -16 -44 -19 -7 -6 27 -135 38 -141 9 -6 96 89
116 128 12 25 13 31 1 38 -19 13 -67 10 -111 -6z"/>
</g>
</svg>
